<svg width="56" height="56" viewBox="0 0 56 56" fill="none" xmlns="http://www.w3.org/2000/svg">
<path d="M52.5 35C52.0359 35 51.5908 35.1844 51.2626 35.5126C50.9344 35.8408 50.75 36.2859 50.75 36.75V40.25C50.75 41.6424 50.1969 42.9777 49.2123 43.9623C48.2277 44.9469 46.8924 45.5 45.5 45.5H10.5C9.10761 45.5 7.77226 44.9469 6.78769 43.9623C5.80312 42.9777 5.25 41.6424 5.25 40.25V36.75C5.25 36.2859 5.06563 35.8408 4.73744 35.5126C4.40925 35.1844 3.96413 35 3.5 35C3.03587 35 2.59075 35.1844 2.26256 35.5126C1.93437 35.8408 1.75 36.2859 1.75 36.75V40.25C1.75278 42.5698 2.67554 44.7938 4.31588 46.4341C5.95623 48.0745 8.18021 48.9972 10.5 49H45.5C47.8198 48.9972 50.0438 48.0745 51.6841 46.4341C53.3245 44.7938 54.2472 42.5698 54.25 40.25V36.75C54.25 36.2859 54.0656 35.8408 53.7374 35.5126C53.4092 35.1844 52.9641 35 52.5 35Z" fill="black"/>
<path d="M40.2501 18.7495H32.9001C31.876 18.7817 30.8563 18.6029 29.9043 18.2242C28.9523 17.8455 28.0883 17.275 27.3661 16.5483C26.644 15.8215 26.079 14.954 25.7064 13.9996C25.3337 13.0452 25.1614 12.0243 25.2001 11.0005V3.5C25.2026 2.90325 25.3073 2.31135 25.5098 1.75H18.2001C17.0798 1.75787 16.0084 2.20985 15.221 3.00678C14.4336 3.8037 13.9945 4.88045 14.0001 6.00075V35.9992C13.9945 37.1195 14.4336 38.1963 15.221 38.9932C16.0084 39.7901 17.0798 40.2421 18.2001 40.25H37.8001C38.9203 40.2421 39.9917 39.7901 40.7791 38.9932C41.5666 38.1963 42.0056 37.1195 42.0001 35.9992V18.4397C41.4385 18.6414 40.8467 18.7461 40.2501 18.7495ZM32.7373 29.2373L29.2373 32.7373C28.9078 33.0628 28.4632 33.2453 28.0001 33.2453C27.5369 33.2453 27.0923 33.0628 26.7628 32.7373L23.2628 29.2373C22.944 28.9072 22.7676 28.4651 22.7716 28.0063C22.7756 27.5475 22.9597 27.1085 23.2841 26.7841C23.6086 26.4596 24.0475 26.2756 24.5064 26.2716C24.9652 26.2676 25.4072 26.444 25.7373 26.7628L26.2501 27.2755V21C26.2501 20.5359 26.4344 20.0908 26.7626 19.7626C27.0908 19.4344 27.5359 19.25 28.0001 19.25C28.4642 19.25 28.9093 19.4344 29.2375 19.7626C29.5657 20.0908 29.7501 20.5359 29.7501 21V27.2755C29.8913 27.0212 30.0877 26.8019 30.325 26.6337C30.5622 26.4654 30.8342 26.3525 31.1208 26.3033C31.4075 26.2541 31.7015 26.2698 31.9813 26.3494C32.261 26.4289 32.5194 26.5701 32.7373 26.7628C33.0654 27.0909 33.2497 27.536 33.2497 28C33.2497 28.464 33.0654 28.9091 32.7373 29.2373Z" fill="black"/>
<path d="M41.5 12.276L31.7 2.27475C31.4566 2.02659 31.1449 1.85651 30.8046 1.78619C30.4642 1.71587 30.1106 1.7485 29.7888 1.8799C29.4671 2.01131 29.1917 2.23555 28.9979 2.52403C28.8041 2.81252 28.7005 3.15219 28.7005 3.49975V11.0002C28.6578 11.5649 28.7367 12.1322 28.932 12.6638C29.1273 13.1954 29.4343 13.6789 29.8324 14.0816C30.2306 14.4844 30.7104 14.797 31.2397 14.9985C31.769 15.1999 32.3353 15.2854 32.9005 15.2492H40.2505C40.5951 15.2492 40.932 15.1474 41.219 14.9566C41.506 14.7659 41.7303 14.4946 41.8637 14.1769C41.9971 13.8592 42.0338 13.5091 41.9691 13.1707C41.9044 12.8322 41.7412 12.5221 41.5 12.276Z" fill="black"/>
</svg>
